<svg viewBox="0 0 500 500" fill="none" xmlns="http://www.w3.org/2000/svg">
<circle cx="250.5" cy="249.5" r="187.5" fill="#E7EEF6" stroke="#696969" stroke-width="10"/>
<path d="M90.5 181.5V123C90.5 123 91.5 101.5 130 101.5C169 101.5 171.5 123 171.5 123V181.5C171.5 181.5 171.5 197 147 197C147 197 171.5 197 171.5 217.5V385C171.5 385 169 407 130 407C91.5 407 90.5 385 90.5 385V217.5C90.5 197 114 197 114 197C90.5 197 90.5 181.5 90.5 181.5Z" fill="white" stroke="black" stroke-width="4"/>
<mask id="mask0_1_2" style="mask-type:alpha" maskUnits="userSpaceOnUse" x="88" y="99" width="85" height="310">
<path d="M90 181V122.5C90 122.5 91 101 129.5 101C168.5 101 171 122.5 171 122.5V181C171 181 171 196.5 146.5 196.5C146.5 196.5 171 196.5 171 217V384.5C171 384.5 168.5 406.5 129.5 406.5C91 406.5 90 384.5 90 384.5V217C90 196.5 113.5 196.5 113.5 196.5C90 196.5 90 181 90 181Z" fill="white" stroke="black" stroke-width="4"/>
</mask>
<g mask="url(#mask0_1_2)">
<rect x="89" y="300" width="84" height="110" fill="#D9D9D9"/>
<rect x="90" y="245.5" width="84" height="19" fill="#9D9D9D"/>
<rect x="89" y="182" width="84" height="28" fill="#B2B2B2"/>
<rect x="89" y="128" width="84" height="28" fill="#D9D9D9"/>
<rect x="89" y="128" width="84" height="28" fill="#D9D9D9"/>
<line x1="91" y1="279.5" x2="170" y2="279.5" stroke="black" stroke-width="5"/>
<line x1="92" y1="223.5" x2="171" y2="223.5" stroke="black" stroke-width="5"/>
<line x1="91" y1="255.5" x2="170" y2="255.5" stroke="black" stroke-width="5"/>
</g>
<path d="M90.5 181.5V123C90.5 123 91.5 101.5 130 101.5C169 101.5 171.5 123 171.5 123V181.5C171.5 181.5 171.5 197 147 197C147 197 171.5 197 171.5 217.5V385C171.5 385 169 407 130 407C91.5 407 90.5 385 90.5 385V217.5C90.5 197 114 197 114 197C90.5 197 90.5 181.5 90.5 181.5Z" stroke="black" stroke-width="4"/>
<circle cx="230.5" cy="330.5" r="35.5" fill="#00F5D4" stroke="black" stroke-width="4"/>
<circle cx="380.5" cy="253.5" r="35.5" fill="#FFBE0B" stroke="black" stroke-width="4"/>
<circle cx="305.5" cy="254.5" r="35.5" fill="#FB5607" stroke="black" stroke-width="4"/>
<circle cx="230.5" cy="254.5" r="35.5" fill="#FF006E" stroke="black" stroke-width="4"/>
<circle cx="305.5" cy="178.5" r="35.5" fill="#8338EC" stroke="black" stroke-width="4"/>
<circle cx="230.5" cy="178.5" r="35.5" fill="#3A86FF" stroke="black" stroke-width="4"/>
<line y1="-2.5" x2="34.1321" y2="-2.5" transform="matrix(-0.84964 -0.527363 -0.527363 0.84964 199 315)" stroke="black" stroke-width="5"/>
<line x1="169" y1="255.5" x2="195" y2="255.5" stroke="black" stroke-width="5"/>
<line x1="169.682" y1="213.876" x2="198.682" y2="195.876" stroke="black" stroke-width="5"/>
</svg>
